<mxfile host="Electron" modified="2024-04-23T17:11:44.463Z" agent="Mozilla/5.0 (Windows NT 10.0; Win64; x64) AppleWebKit/537.36 (KHTML, like Gecko) draw.io/23.1.5 Chrome/120.0.6099.109 Electron/28.1.0 Safari/537.36" etag="Vd6z50FoM7ijApNMoY7J" version="23.1.5" type="device">
  <diagram name="Trang-1" id="pnfUNwlt-ko0ekyYzd1W">
    <mxGraphModel dx="1303" dy="2702" grid="1" gridSize="10" guides="1" tooltips="1" connect="1" arrows="1" fold="1" page="1" pageScale="1" pageWidth="827" pageHeight="1169" math="0" shadow="0">
      <root>
        <mxCell id="0" />
        <mxCell id="1" parent="0" />
        <mxCell id="Q65Ma_KP4ZEjjxAMopaC-1" value="Nhân viên thu ngân" style="swimlane;html=1;startSize=20;fontStyle=0;collapsible=0;horizontal=1;swimlaneLine=1;strokeWidth=2;swimlaneFillColor=#ffffff;whiteSpace=wrap;" vertex="1" parent="1">
          <mxGeometry x="160" y="-80" width="280" height="960" as="geometry" />
        </mxCell>
        <mxCell id="Q65Ma_KP4ZEjjxAMopaC-3" value="" style="ellipse;html=1;shape=startState;fillColor=#000000;strokeColor=#ff0000;" vertex="1" parent="Q65Ma_KP4ZEjjxAMopaC-1">
          <mxGeometry x="20" y="61.66" width="50" height="50" as="geometry" />
        </mxCell>
        <mxCell id="Q65Ma_KP4ZEjjxAMopaC-7" value="Truy cập vào hệ thống" style="points=[[0.25,0,0],[0.5,0,0],[0.75,0,0],[1,0.25,0],[1,0.5,0],[1,0.75,0],[0.75,1,0],[0.5,1,0],[0.25,1,0],[0,0.75,0],[0,0.5,0],[0,0.25,0]];shape=mxgraph.bpmn.task;whiteSpace=wrap;rectStyle=rounded;size=10;html=1;container=1;expand=0;collapsible=0;taskMarker=abstract;" vertex="1" parent="Q65Ma_KP4ZEjjxAMopaC-1">
          <mxGeometry x="120" y="50" width="110" height="73.33" as="geometry" />
        </mxCell>
        <mxCell id="Q65Ma_KP4ZEjjxAMopaC-8" style="edgeStyle=orthogonalEdgeStyle;rounded=0;orthogonalLoop=1;jettySize=auto;html=1;entryX=0;entryY=0.5;entryDx=0;entryDy=0;entryPerimeter=0;" edge="1" parent="Q65Ma_KP4ZEjjxAMopaC-1" source="Q65Ma_KP4ZEjjxAMopaC-3" target="Q65Ma_KP4ZEjjxAMopaC-7">
          <mxGeometry relative="1" as="geometry" />
        </mxCell>
        <mxCell id="Q65Ma_KP4ZEjjxAMopaC-11" value="Truy cập vào hóa đơn đặt hàng" style="points=[[0.25,0,0],[0.5,0,0],[0.75,0,0],[1,0.25,0],[1,0.5,0],[1,0.75,0],[0.75,1,0],[0.5,1,0],[0.25,1,0],[0,0.75,0],[0,0.5,0],[0,0.25,0]];shape=mxgraph.bpmn.task;whiteSpace=wrap;rectStyle=rounded;size=10;html=1;container=1;expand=0;collapsible=0;taskMarker=abstract;" vertex="1" parent="Q65Ma_KP4ZEjjxAMopaC-1">
          <mxGeometry x="120" y="190" width="110" height="73.33" as="geometry" />
        </mxCell>
        <mxCell id="Q65Ma_KP4ZEjjxAMopaC-17" value="Tiến hành xuất hóa đơn cho nhân viên bếp" style="points=[[0.25,0,0],[0.5,0,0],[0.75,0,0],[1,0.25,0],[1,0.5,0],[1,0.75,0],[0.75,1,0],[0.5,1,0],[0.25,1,0],[0,0.75,0],[0,0.5,0],[0,0.25,0]];shape=mxgraph.bpmn.task;whiteSpace=wrap;rectStyle=rounded;size=10;html=1;container=1;expand=0;collapsible=0;taskMarker=abstract;" vertex="1" parent="Q65Ma_KP4ZEjjxAMopaC-1">
          <mxGeometry x="120" y="440" width="110" height="73.33" as="geometry" />
        </mxCell>
        <mxCell id="Q65Ma_KP4ZEjjxAMopaC-23" style="edgeStyle=orthogonalEdgeStyle;rounded=0;orthogonalLoop=1;jettySize=auto;html=1;" edge="1" parent="Q65Ma_KP4ZEjjxAMopaC-1" source="Q65Ma_KP4ZEjjxAMopaC-20" target="Q65Ma_KP4ZEjjxAMopaC-22">
          <mxGeometry relative="1" as="geometry" />
        </mxCell>
        <mxCell id="Q65Ma_KP4ZEjjxAMopaC-20" value="Thoát hệ thống" style="points=[[0.25,0,0],[0.5,0,0],[0.75,0,0],[1,0.25,0],[1,0.5,0],[1,0.75,0],[0.75,1,0],[0.5,1,0],[0.25,1,0],[0,0.75,0],[0,0.5,0],[0,0.25,0]];shape=mxgraph.bpmn.task;whiteSpace=wrap;rectStyle=rounded;size=10;html=1;container=1;expand=0;collapsible=0;taskMarker=abstract;" vertex="1" parent="Q65Ma_KP4ZEjjxAMopaC-1">
          <mxGeometry x="120" y="690" width="110" height="73.33" as="geometry" />
        </mxCell>
        <mxCell id="Q65Ma_KP4ZEjjxAMopaC-22" value="" style="ellipse;html=1;shape=endState;fillColor=#000000;strokeColor=#ff0000;" vertex="1" parent="Q65Ma_KP4ZEjjxAMopaC-1">
          <mxGeometry x="145" y="850" width="60" height="60" as="geometry" />
        </mxCell>
        <mxCell id="Q65Ma_KP4ZEjjxAMopaC-2" value="Hệ thống" style="swimlane;html=1;startSize=20;fontStyle=0;collapsible=0;horizontal=1;swimlaneLine=1;strokeWidth=2;swimlaneFillColor=#ffffff;whiteSpace=wrap;" vertex="1" parent="1">
          <mxGeometry x="440" y="-80" width="280" height="960" as="geometry" />
        </mxCell>
        <mxCell id="Q65Ma_KP4ZEjjxAMopaC-9" value="Hiển thị dao diện hệ thống" style="points=[[0.25,0,0],[0.5,0,0],[0.75,0,0],[1,0.25,0],[1,0.5,0],[1,0.75,0],[0.75,1,0],[0.5,1,0],[0.25,1,0],[0,0.75,0],[0,0.5,0],[0,0.25,0]];shape=mxgraph.bpmn.task;whiteSpace=wrap;rectStyle=rounded;size=10;html=1;container=1;expand=0;collapsible=0;taskMarker=abstract;" vertex="1" parent="Q65Ma_KP4ZEjjxAMopaC-2">
          <mxGeometry x="110" y="50" width="110" height="73.33" as="geometry" />
        </mxCell>
        <mxCell id="Q65Ma_KP4ZEjjxAMopaC-14" value="Hiển thị giao diện đơn đặt món của khách hàng được ghi nhận trên&amp;nbsp; hệ thống" style="points=[[0.25,0,0],[0.5,0,0],[0.75,0,0],[1,0.25,0],[1,0.5,0],[1,0.75,0],[0.75,1,0],[0.5,1,0],[0.25,1,0],[0,0.75,0],[0,0.5,0],[0,0.25,0]];shape=mxgraph.bpmn.task;whiteSpace=wrap;rectStyle=rounded;size=10;html=1;container=1;expand=0;collapsible=0;taskMarker=abstract;" vertex="1" parent="Q65Ma_KP4ZEjjxAMopaC-2">
          <mxGeometry x="110" y="303.34000000000003" width="110" height="73.33" as="geometry" />
        </mxCell>
        <mxCell id="Q65Ma_KP4ZEjjxAMopaC-13" value="Ghi nhận và xuất hóa đơn cho nhân viên bếp" style="points=[[0.25,0,0],[0.5,0,0],[0.75,0,0],[1,0.25,0],[1,0.5,0],[1,0.75,0],[0.75,1,0],[0.5,1,0],[0.25,1,0],[0,0.75,0],[0,0.5,0],[0,0.25,0]];shape=mxgraph.bpmn.task;whiteSpace=wrap;rectStyle=rounded;size=10;html=1;container=1;expand=0;collapsible=0;taskMarker=abstract;" vertex="1" parent="Q65Ma_KP4ZEjjxAMopaC-2">
          <mxGeometry x="110" y="550" width="110" height="73.33" as="geometry" />
        </mxCell>
        <mxCell id="Q65Ma_KP4ZEjjxAMopaC-10" style="edgeStyle=orthogonalEdgeStyle;rounded=0;orthogonalLoop=1;jettySize=auto;html=1;" edge="1" parent="1" source="Q65Ma_KP4ZEjjxAMopaC-7" target="Q65Ma_KP4ZEjjxAMopaC-9">
          <mxGeometry relative="1" as="geometry" />
        </mxCell>
        <mxCell id="Q65Ma_KP4ZEjjxAMopaC-12" style="edgeStyle=orthogonalEdgeStyle;rounded=0;orthogonalLoop=1;jettySize=auto;html=1;" edge="1" parent="1" source="Q65Ma_KP4ZEjjxAMopaC-9" target="Q65Ma_KP4ZEjjxAMopaC-11">
          <mxGeometry relative="1" as="geometry">
            <Array as="points">
              <mxPoint x="580" y="147" />
            </Array>
          </mxGeometry>
        </mxCell>
        <mxCell id="Q65Ma_KP4ZEjjxAMopaC-15" style="edgeStyle=orthogonalEdgeStyle;rounded=0;orthogonalLoop=1;jettySize=auto;html=1;entryX=0;entryY=0.5;entryDx=0;entryDy=0;entryPerimeter=0;" edge="1" parent="1" source="Q65Ma_KP4ZEjjxAMopaC-11" target="Q65Ma_KP4ZEjjxAMopaC-14">
          <mxGeometry relative="1" as="geometry">
            <Array as="points">
              <mxPoint x="335" y="260" />
            </Array>
          </mxGeometry>
        </mxCell>
        <mxCell id="Q65Ma_KP4ZEjjxAMopaC-18" style="edgeStyle=orthogonalEdgeStyle;rounded=0;orthogonalLoop=1;jettySize=auto;html=1;" edge="1" parent="1" source="Q65Ma_KP4ZEjjxAMopaC-14" target="Q65Ma_KP4ZEjjxAMopaC-17">
          <mxGeometry relative="1" as="geometry">
            <Array as="points">
              <mxPoint x="605" y="397" />
            </Array>
          </mxGeometry>
        </mxCell>
        <mxCell id="Q65Ma_KP4ZEjjxAMopaC-19" style="edgeStyle=orthogonalEdgeStyle;rounded=0;orthogonalLoop=1;jettySize=auto;html=1;" edge="1" parent="1" source="Q65Ma_KP4ZEjjxAMopaC-17" target="Q65Ma_KP4ZEjjxAMopaC-13">
          <mxGeometry relative="1" as="geometry">
            <Array as="points">
              <mxPoint x="335" y="507" />
            </Array>
          </mxGeometry>
        </mxCell>
        <mxCell id="Q65Ma_KP4ZEjjxAMopaC-21" style="edgeStyle=orthogonalEdgeStyle;rounded=0;orthogonalLoop=1;jettySize=auto;html=1;" edge="1" parent="1" source="Q65Ma_KP4ZEjjxAMopaC-13" target="Q65Ma_KP4ZEjjxAMopaC-20">
          <mxGeometry relative="1" as="geometry">
            <Array as="points">
              <mxPoint x="605" y="647" />
            </Array>
          </mxGeometry>
        </mxCell>
      </root>
    </mxGraphModel>
  </diagram>
</mxfile>
